<svg xmlns="http://www.w3.org/2000/svg" xmlns:xlink="http://www.w3.org/1999/xlink" width="156.656" height="50" viewBox="0 0 156.656 50"><defs><clipPath id="a"><path d="M68.815,439.121c0,.058,0,.115,0,.172v.008c0,.064,0,.128,0,.192s0,.126,0,.19c0,.015,0,.031,0,.046,0,.123.007.246.012.368,0,.09.006.18.011.271,0,.07.007.141.011.211s.009.142.014.211.009.139.014.209v0c0,.067.01.134.016.2s.012.149.019.223.013.137.02.206.014.139.022.209.017.168.028.252c.014.11.027.219.042.33.011.083.021.166.034.249l.017.115a25,25,0,0,0,49.733-3.668q0-.5-.02-1v-.014a25.079,25.079,0,0,0-.658-4.791h0s0,0,0-.006q-.132-.557-.291-1.105a25,25,0,0,0-49.03,6.917" transform="translate(-68.815 -414.122)" fill="none"/></clipPath><linearGradient id="b" x1="-0.052" y1="1.878" x2="-0.05" y2="1.878" gradientUnits="objectBoundingBox"><stop offset="0" stop-color="#007fff"/><stop offset="0.627" stop-color="#0451d8"/><stop offset="1" stop-color="#0834bf"/></linearGradient></defs><g transform="translate(3073.185 360.878)"><path d="M419.789,527.1v2.1h.051a4.587,4.587,0,0,1,4.306-2.409,5.747,5.747,0,0,1,2.178.359,3.586,3.586,0,0,1,1.41,1,3.714,3.714,0,0,1,.756,1.525,8.219,8.219,0,0,1,.218,1.961v8.714H426.53v-8.97a2.633,2.633,0,0,0-.718-1.948,2.669,2.669,0,0,0-1.973-.717,4.441,4.441,0,0,0-1.73.307,3.244,3.244,0,0,0-1.217.871,3.752,3.752,0,0,0-.73,1.32,5.365,5.365,0,0,0-.244,1.653v7.484h-2.178V527.1Z" transform="translate(-3437.037 -870.273)" fill="#0834bf"/><path d="M511.271,507.037v1.922h-2.64v8.227a2.374,2.374,0,0,0,.064.615.632.632,0,0,0,.243.359,1.071,1.071,0,0,0,.5.167,7.257,7.257,0,0,0,.833.038h1v1.922h-1.666a7.816,7.816,0,0,1-1.448-.115,2.127,2.127,0,0,1-.974-.423,1.806,1.806,0,0,1-.551-.872,5.03,5.03,0,0,1-.179-1.486V508.96H504.2v-1.922h2.255v-3.972h2.178v3.972Z" transform="translate(-3510.144 -850.207)" fill="#0834bf"/><path d="M570.468,527.086v2.794h.051a5.9,5.9,0,0,1,1.948-2.384,4.9,4.9,0,0,1,2.922-.718v2.307a6.163,6.163,0,0,0-2.23.359,3.514,3.514,0,0,0-1.486,1.051,4.342,4.342,0,0,0-.82,1.679,9.054,9.054,0,0,0-.256,2.268v5.895h-2.178v-13.25Z" transform="translate(-3564.446 -870.255)" fill="#0834bf"/><path d="M624.84,543.805a13.876,13.876,0,0,1-.756,1.64,4.488,4.488,0,0,1-.82,1.089,2.787,2.787,0,0,1-1,.615,3.851,3.851,0,0,1-1.269.192,5.791,5.791,0,0,1-.769-.051,3.645,3.645,0,0,1-.743-.179v-2a3.677,3.677,0,0,0,.654.218,2.768,2.768,0,0,0,.628.09,1.871,1.871,0,0,0,1.115-.32,1.965,1.965,0,0,0,.679-.91l.9-2.23L618.2,528.787h2.46l3.87,10.841h.051l3.716-10.841h2.307Z" transform="translate(-3606.542 -871.956)" fill="#0834bf"/><path d="M715.588,526.824v1.692h.051a4,4,0,0,1,1.691-1.563,5.191,5.191,0,0,1,2.255-.487,5.74,5.74,0,0,1,2.691.589,5.567,5.567,0,0,1,1.871,1.563,6.617,6.617,0,0,1,1.1,2.268,10.081,10.081,0,0,1,.359,2.7,9.111,9.111,0,0,1-.359,2.563,6.524,6.524,0,0,1-1.089,2.178,5.4,5.4,0,0,1-1.82,1.512,5.477,5.477,0,0,1-2.55.564,5.16,5.16,0,0,1-2.268-.5,4.292,4.292,0,0,1-1.7-1.474h-.051v6.279h-3.639V526.824Zm4.728,10.508a2.918,2.918,0,0,0,.974-.935,3.856,3.856,0,0,0,.525-1.346,7.935,7.935,0,0,0,.154-1.563,7.357,7.357,0,0,0-.167-1.563,4.169,4.169,0,0,0-.551-1.371,3.081,3.081,0,0,0-.987-.974,2.758,2.758,0,0,0-1.474-.372,2.808,2.808,0,0,0-1.5.372,2.989,2.989,0,0,0-.974.961,3.99,3.99,0,0,0-.525,1.358,8.086,8.086,0,0,0-.154,1.589,7.327,7.327,0,0,0,.167,1.563,4.032,4.032,0,0,0,.538,1.346,3.105,3.105,0,0,0,3.972.935" transform="translate(-3685.962 -869.993)" fill="#007fff"/><path d="M813.6,530.9a4.224,4.224,0,0,1,.641-2.127,4.359,4.359,0,0,1,1.435-1.358,6.25,6.25,0,0,1,1.96-.73,11.162,11.162,0,0,1,2.191-.218,14.9,14.9,0,0,1,2.025.141,6.208,6.208,0,0,1,1.871.551,3.689,3.689,0,0,1,1.384,1.141,3.188,3.188,0,0,1,.538,1.935v6.894a13.794,13.794,0,0,0,.1,1.717,3.09,3.09,0,0,0,.359,1.23h-3.691a5.136,5.136,0,0,1-.166-.628,5.364,5.364,0,0,1-.09-.653,4.738,4.738,0,0,1-2.05,1.256,8.231,8.231,0,0,1-2.409.359,6.5,6.5,0,0,1-1.768-.231,4.043,4.043,0,0,1-1.435-.717,3.339,3.339,0,0,1-.961-1.23,4.157,4.157,0,0,1-.346-1.768,3.862,3.862,0,0,1,.4-1.858,3.322,3.322,0,0,1,1.025-1.166,4.606,4.606,0,0,1,1.435-.654,15.489,15.489,0,0,1,1.627-.346q.82-.128,1.615-.205A9.7,9.7,0,0,0,820.7,532a2.455,2.455,0,0,0,.974-.448.984.984,0,0,0,.333-.859,1.933,1.933,0,0,0-.192-.935,1.417,1.417,0,0,0-.512-.538,2.023,2.023,0,0,0-.743-.256,6.119,6.119,0,0,0-.91-.064,2.762,2.762,0,0,0-1.692.461,2.057,2.057,0,0,0-.717,1.538Zm8.406,2.691a1.628,1.628,0,0,1-.576.32,5.925,5.925,0,0,1-.743.192q-.4.077-.833.128t-.871.128a6.6,6.6,0,0,0-.807.205,2.388,2.388,0,0,0-.692.346,1.647,1.647,0,0,0-.474.551,1.769,1.769,0,0,0-.179.846,1.7,1.7,0,0,0,.179.82,1.37,1.37,0,0,0,.487.526,2.057,2.057,0,0,0,.717.269,4.584,4.584,0,0,0,.846.077,3.215,3.215,0,0,0,1.666-.359,2.4,2.4,0,0,0,.871-.859,2.744,2.744,0,0,0,.346-1.012,6.972,6.972,0,0,0,.064-.82Z" transform="translate(-3771.416 -869.992)" fill="#007fff"/><path d="M914.968,536.78a2.123,2.123,0,0,0,.628.692,2.692,2.692,0,0,0,.884.4,4.15,4.15,0,0,0,1.038.128,3.863,3.863,0,0,0,.807-.09,2.749,2.749,0,0,0,.769-.282,1.747,1.747,0,0,0,.577-.513,1.345,1.345,0,0,0,.231-.807q0-.82-1.089-1.23a21.832,21.832,0,0,0-3.037-.82q-.795-.179-1.55-.423a5.287,5.287,0,0,1-1.346-.641,3.108,3.108,0,0,1-.948-1,2.829,2.829,0,0,1-.359-1.474,3.988,3.988,0,0,1,.5-2.1,3.686,3.686,0,0,1,1.32-1.294,5.8,5.8,0,0,1,1.845-.666,11.4,11.4,0,0,1,2.1-.192,10.514,10.514,0,0,1,2.089.2,5.537,5.537,0,0,1,1.807.692,4.151,4.151,0,0,1,1.32,1.294,4.351,4.351,0,0,1,.628,2.038h-3.46a1.594,1.594,0,0,0-.795-1.423,3.638,3.638,0,0,0-1.691-.372,6.278,6.278,0,0,0-.666.039,2.223,2.223,0,0,0-.653.167,1.347,1.347,0,0,0-.5.372.981.981,0,0,0-.2.653,1,1,0,0,0,.359.795,2.774,2.774,0,0,0,.935.5,11.716,11.716,0,0,0,1.32.346q.743.153,1.512.333a15.457,15.457,0,0,1,1.551.435,5.116,5.116,0,0,1,1.345.679,3.291,3.291,0,0,1,.948,1.051,3.09,3.09,0,0,1,.359,1.551,4.026,4.026,0,0,1-1.9,3.614,5.617,5.617,0,0,1-1.935.756,11.305,11.305,0,0,1-2.217.218,10.986,10.986,0,0,1-2.255-.231,5.949,5.949,0,0,1-1.961-.769,4.394,4.394,0,0,1-1.41-1.422,4.449,4.449,0,0,1-.6-2.217h3.46a1.991,1.991,0,0,0,.244,1.012" transform="translate(-3854.345 -869.993)" fill="#007fff"/><path d="M1007.4,536.78a2.123,2.123,0,0,0,.628.692,2.692,2.692,0,0,0,.884.4,4.152,4.152,0,0,0,1.038.128,3.863,3.863,0,0,0,.807-.09,2.745,2.745,0,0,0,.769-.282,1.747,1.747,0,0,0,.577-.513,1.345,1.345,0,0,0,.231-.807q0-.82-1.089-1.23a21.828,21.828,0,0,0-3.037-.82q-.794-.179-1.551-.423a5.285,5.285,0,0,1-1.345-.641,3.108,3.108,0,0,1-.948-1,2.829,2.829,0,0,1-.359-1.474,3.987,3.987,0,0,1,.5-2.1,3.683,3.683,0,0,1,1.32-1.294,5.8,5.8,0,0,1,1.845-.666,11.4,11.4,0,0,1,2.1-.192,10.517,10.517,0,0,1,2.089.2,5.539,5.539,0,0,1,1.807.692,4.155,4.155,0,0,1,1.32,1.294,4.358,4.358,0,0,1,.628,2.038h-3.46a1.593,1.593,0,0,0-.794-1.423,3.638,3.638,0,0,0-1.691-.372,6.279,6.279,0,0,0-.666.039,2.225,2.225,0,0,0-.654.167,1.349,1.349,0,0,0-.5.372.981.981,0,0,0-.2.653,1,1,0,0,0,.359.795,2.777,2.777,0,0,0,.936.5,11.724,11.724,0,0,0,1.32.346q.743.153,1.512.333a15.457,15.457,0,0,1,1.551.435,5.11,5.11,0,0,1,1.345.679,3.293,3.293,0,0,1,.949,1.051,3.092,3.092,0,0,1,.358,1.551,4.025,4.025,0,0,1-1.9,3.614,5.614,5.614,0,0,1-1.935.756,11.306,11.306,0,0,1-2.217.218,10.989,10.989,0,0,1-2.255-.231,5.949,5.949,0,0,1-1.96-.769,4.391,4.391,0,0,1-1.41-1.422,4.453,4.453,0,0,1-.6-2.217h3.46a1.988,1.988,0,0,0,.244,1.012" transform="translate(-3932.5 -869.993)" fill="#007fff"/><g transform="translate(-3073.185 -360.878)" clip-path="url(#a)"><rect width="64.541" height="64.54" transform="matrix(0.934, -0.357, 0.357, 0.934, -16.654, 6.355)" fill="url(#b)"/></g><path d="M129.391,497.248q-.29.008-.581.008a11.272,11.272,0,0,1-8.82-3.6,13.87,13.87,0,0,1-3.23-9.1c.367.012.74.037,1.116.045a13.806,13.806,0,0,0,3.228,9.053,11.1,11.1,0,0,0,8.287,3.589m28.995-24.5c-.263.367-.555.774-.817,1.128q-.211.284-.424.564-.2.27-.4.536-1.709,2.3-3.515,4.349s-1.127,1.2-2.807,2.818a77.27,77.27,0,0,1-6.114,5.375,34.168,34.168,0,0,1-5.053,3.066,18.866,18.866,0,0,1-7.46,2.044q.265.012.543.012a18.436,18.436,0,0,0,8.031-2.056,34.169,34.169,0,0,0,5.052-3.066,76.965,76.965,0,0,0,6.114-5.375c1.68-1.621,2.808-2.818,2.808-2.818q1.78-2.022,3.468-4.285c.246-.329.6-.816.862-1.187q-.132-.557-.291-1.105m-40.21,7.085a21.535,21.535,0,0,1,5.562-11.378,18.555,18.555,0,0,1,13.559-6.378q-.256-.008-.518-.008a18.559,18.559,0,0,0-14.154,6.386,21.536,21.536,0,0,0-5.562,11.378c.366.006.739,0,1.114,0m2.155.834c1.2,0,1.522-.026,2.545-.067l.375-.016.187-.008.36-.017.351-.017.338-.019h0l.428-.026.377-.024.12-.008.158-.011c1.432-.1,2.34-.2,2.448-.211h.011c.521-.1,1.033-.207,1.533-.338a18.877,18.877,0,0,0,6.453-3.014q4.636-3.37,4.636-7.792,0-3.959-3.535-3.957-.3,0-.6.023,3.017.278,3.018,3.935,0,4.421-4.636,7.792a18.884,18.884,0,0,1-6.453,3.014c-.5.131-1.013.243-1.533.338h-.011c-.108.012-1.015.111-2.448.211l-.158.011-.12.008-.377.024-.428.026h0l-.338.019-.351.017-.36.017-.187.008-.375.016" transform="translate(-3182.541 -815.539)" fill="#eb008b"/><path d="M118.8,478.648l-.222.3c-1.146,1.513-2.289,2.887-3.407,4.132l-.146.158c-6.779,7.482-12.65,10.212-12.65,10.212a26.466,26.466,0,0,1-12.988,3.813c-.178,0-.354,0-.528-.008h-.006a11.106,11.106,0,0,1-8.287-3.589,13.728,13.728,0,0,1-3.226-9.025.268.268,0,0,1,0-.028c.747.023,1.514.038,2.294.042l.549,0q1.479,0,2.849-.05.565-.02,1.111-.05.385,7.776,7.122,8.072.265.012.543.012a18.437,18.437,0,0,0,8.031-2.056,34.183,34.183,0,0,0,5.052-3.066A76.994,76.994,0,0,0,111,482.141c1.68-1.621,2.808-2.818,2.808-2.818q1.78-2.022,3.468-4.285.389-.522.774-1.058l.089-.123a25.093,25.093,0,0,1,.658,4.791m-15.037-14.566a9.657,9.657,0,0,0-6.407-2.015q-.3,0-.6.008A18.553,18.553,0,0,0,83.2,468.453a21.53,21.53,0,0,0-5.562,11.378c.267,0,.537.007.809.01h.022l.523,0c2.124,0,4.045-.086,5.514-.181A21.7,21.7,0,0,1,88.8,469.651q3.312-4.192,7.186-4.491c.2-.015.4-.022.6-.022q3.534,0,3.536,3.957,0,4.421-4.637,7.791a18.866,18.866,0,0,1-6.453,3.014c-.5.131-1.013.243-1.533.338l-.01,0c-.107.012-1.015.111-2.448.21l-.158.011-.12.009-.377.024-.428.026h0c-.11.007-.223.012-.337.02l-.352.017-.36.018-.187.008-.376.016c-1.023.04-2.151.067-3.346.067l-.552,0q-.455,0-.92-.011l-.367-.009H77.12l-.436-.012h-.045l-.43-.015c-.337-.013-.679-.029-1.022-.047-.144-.006-.288-.015-.432-.024l-.06,0-.427-.026c-.519-.037-1.039-.078-1.559-.128l-.389-.038-.106-.011-.383-.042-.113-.014-.372-.045-.336-.042-.4-.055c-.568-.081-1.135-.172-1.69-.276l0,0-.1-.026v.008c0,.064,0,.128,0,.192s0,.127,0,.19c0,.015,0,.031,0,.046,0,.123.007.246.012.368,0,.09.006.18.011.271,0,.07.007.141.011.211s.009.142.014.211.009.139.014.209v0c0,.067.01.134.016.2s.012.149.019.223.013.137.02.206.014.139.022.209.018.168.028.252c.014.11.026.219.042.33.011.083.022.166.034.249l.156.017.163.017.063.007c1.685.175,4.565.429,7.876.532.75.024,1.523.038,2.309.043l.545,0c.713,0,1.435-.009,2.16-.028l.407-.013q.683-.024,1.37-.06c.569-.03,1.137-.068,1.7-.117.123-.01.247-.021.371-.032q.543-.049,1.077-.111l.417-.05q.312-.038.621-.082l.409-.06q.322-.048.64-.1c.189-.032.376-.065.562-.1.394-.073.78-.154,1.158-.24.19-.043.376-.09.561-.136q.825-.209,1.581-.469l.01,0c.423-.134.842-.28,1.256-.435a26.152,26.152,0,0,0,5-2.5q6.688-4.277,6.686-9.824a6.675,6.675,0,0,0-2.4-5.392" transform="translate(-3142.004 -815.541)" fill="#fff"/></g></svg>