<svg xmlns="http://www.w3.org/2000/svg" xmlns:xlink="http://www.w3.org/1999/xlink" width="50" height="50" viewBox="0 0 50 50">
    <defs>
        <clipPath id="a">
            <path
                d="M68.815,439.121c0,.058,0,.115,0,.172v.008c0,.064,0,.128,0,.192s0,.126,0,.19c0,.015,0,.031,0,.046,0,.123.007.246.012.368,0,.09.006.18.011.271,0,.07.007.141.011.211s.009.142.014.211.009.139.014.209v0c0,.067.01.134.016.2s.012.149.019.223.013.137.02.206.014.139.022.209.017.168.028.252c.014.11.027.219.042.33.011.083.021.166.034.249l.017.115a25,25,0,0,0,49.733-3.668q0-.5-.02-1v-.014a25.079,25.079,0,0,0-.658-4.791h0s0,0,0-.006q-.132-.557-.291-1.105a25,25,0,0,0-49.03,6.917"
                transform="translate(-68.815 -414.122)" fill="none" />
        </clipPath>
        <linearGradient id="b" x1="-0.052" y1="1.878" x2="-0.05" y2="1.878" gradientUnits="objectBoundingBox">
            <stop offset="0" stop-color="#007fff" />
            <stop offset="0.627" stop-color="#0451d8" />
            <stop offset="1" stop-color="#0834bf" />
        </linearGradient>
    </defs>
    <g transform="translate(3073.185 360.878)">
        <g transform="translate(-3073.185 -360.878)" clip-path="url(#a)">
            <rect width="64.541" height="64.54" transform="matrix(0.934, -0.357, 0.357, 0.934, -16.654, 6.355)"
                fill="url(#b)" />
        </g>
        <path
            d="M129.391,497.248q-.29.008-.581.008a11.272,11.272,0,0,1-8.82-3.6,13.87,13.87,0,0,1-3.23-9.1c.367.012.74.037,1.116.045a13.806,13.806,0,0,0,3.228,9.053,11.1,11.1,0,0,0,8.287,3.589m28.995-24.5c-.263.367-.555.774-.817,1.128q-.211.284-.424.564-.2.27-.4.536-1.709,2.3-3.515,4.349s-1.127,1.2-2.807,2.818a77.27,77.27,0,0,1-6.114,5.375,34.168,34.168,0,0,1-5.053,3.066,18.866,18.866,0,0,1-7.46,2.044q.265.012.543.012a18.436,18.436,0,0,0,8.031-2.056,34.169,34.169,0,0,0,5.052-3.066,76.965,76.965,0,0,0,6.114-5.375c1.68-1.621,2.808-2.818,2.808-2.818q1.78-2.022,3.468-4.285c.246-.329.6-.816.862-1.187q-.132-.557-.291-1.105m-40.21,7.085a21.535,21.535,0,0,1,5.562-11.378,18.555,18.555,0,0,1,13.559-6.378q-.256-.008-.518-.008a18.559,18.559,0,0,0-14.154,6.386,21.536,21.536,0,0,0-5.562,11.378c.366.006.739,0,1.114,0m2.155.834c1.2,0,1.522-.026,2.545-.067l.375-.016.187-.008.36-.017.351-.017.338-.019h0l.428-.026.377-.024.12-.008.158-.011c1.432-.1,2.34-.2,2.448-.211h.011c.521-.1,1.033-.207,1.533-.338a18.877,18.877,0,0,0,6.453-3.014q4.636-3.37,4.636-7.792,0-3.959-3.535-3.957-.3,0-.6.023,3.017.278,3.018,3.935,0,4.421-4.636,7.792a18.884,18.884,0,0,1-6.453,3.014c-.5.131-1.013.243-1.533.338h-.011c-.108.012-1.015.111-2.448.211l-.158.011-.12.008-.377.024-.428.026h0l-.338.019-.351.017-.36.017-.187.008-.375.016"
            transform="translate(-3182.541 -815.539)" fill="#eb008b" />
        <path
            d="M118.8,478.648l-.222.3c-1.146,1.513-2.289,2.887-3.407,4.132l-.146.158c-6.779,7.482-12.65,10.212-12.65,10.212a26.466,26.466,0,0,1-12.988,3.813c-.178,0-.354,0-.528-.008h-.006a11.106,11.106,0,0,1-8.287-3.589,13.728,13.728,0,0,1-3.226-9.025.268.268,0,0,1,0-.028c.747.023,1.514.038,2.294.042l.549,0q1.479,0,2.849-.05.565-.02,1.111-.05.385,7.776,7.122,8.072.265.012.543.012a18.437,18.437,0,0,0,8.031-2.056,34.183,34.183,0,0,0,5.052-3.066A76.994,76.994,0,0,0,111,482.141c1.68-1.621,2.808-2.818,2.808-2.818q1.78-2.022,3.468-4.285.389-.522.774-1.058l.089-.123a25.093,25.093,0,0,1,.658,4.791m-15.037-14.566a9.657,9.657,0,0,0-6.407-2.015q-.3,0-.6.008A18.553,18.553,0,0,0,83.2,468.453a21.53,21.53,0,0,0-5.562,11.378c.267,0,.537.007.809.01h.022l.523,0c2.124,0,4.045-.086,5.514-.181A21.7,21.7,0,0,1,88.8,469.651q3.312-4.192,7.186-4.491c.2-.015.4-.022.6-.022q3.534,0,3.536,3.957,0,4.421-4.637,7.791a18.866,18.866,0,0,1-6.453,3.014c-.5.131-1.013.243-1.533.338l-.01,0c-.107.012-1.015.111-2.448.21l-.158.011-.12.009-.377.024-.428.026h0c-.11.007-.223.012-.337.02l-.352.017-.36.018-.187.008-.376.016c-1.023.04-2.151.067-3.346.067l-.552,0q-.455,0-.92-.011l-.367-.009H77.12l-.436-.012h-.045l-.43-.015c-.337-.013-.679-.029-1.022-.047-.144-.006-.288-.015-.432-.024l-.06,0-.427-.026c-.519-.037-1.039-.078-1.559-.128l-.389-.038-.106-.011-.383-.042-.113-.014-.372-.045-.336-.042-.4-.055c-.568-.081-1.135-.172-1.69-.276l0,0-.1-.026v.008c0,.064,0,.128,0,.192s0,.127,0,.19c0,.015,0,.031,0,.046,0,.123.007.246.012.368,0,.09.006.18.011.271,0,.07.007.141.011.211s.009.142.014.211.009.139.014.209v0c0,.067.01.134.016.2s.012.149.019.223.013.137.02.206.014.139.022.209.018.168.028.252c.014.11.026.219.042.33.011.083.022.166.034.249l.156.017.163.017.063.007c1.685.175,4.565.429,7.876.532.75.024,1.523.038,2.309.043l.545,0c.713,0,1.435-.009,2.16-.028l.407-.013q.683-.024,1.37-.06c.569-.03,1.137-.068,1.7-.117.123-.01.247-.021.371-.032q.543-.049,1.077-.111l.417-.05q.312-.038.621-.082l.409-.06q.322-.048.64-.1c.189-.032.376-.065.562-.1.394-.073.78-.154,1.158-.24.19-.043.376-.09.561-.136q.825-.209,1.581-.469l.01,0c.423-.134.842-.28,1.256-.435a26.152,26.152,0,0,0,5-2.5q6.688-4.277,6.686-9.824a6.675,6.675,0,0,0-2.4-5.392"
            transform="translate(-3142.004 -815.541)" fill="#fff" />
    </g>
</svg>